<svg width="31" height="28" viewBox="0 0 31 28" fill="none" xmlns="http://www.w3.org/2000/svg">
<path d="M30.44 18.2752C29.9342 16.7976 28.8626 15.4576 27.7527 14.2085C28.0717 13.7362 28.2803 13.1978 28.3633 12.628C28.5119 11.614 28.253 10.6044 27.6347 9.78327C27.0164 8.96213 26.113 8.43023 25.0916 8.28398C24.2013 8.15615 23.3263 8.33598 22.59 8.7628C22.59 8.68697 22.5748 8.61114 22.5442 8.54181C22.5737 8.52989 22.6032 8.51797 22.6316 8.50497C23.2182 8.24065 23.677 7.73475 23.9228 7.08152C24.1948 6.35896 24.1696 5.52482 23.8572 4.85101C23.5524 4.19345 22.9778 3.69513 22.294 3.46872C22.2186 1.79936 20.7876 0.354244 18.8071 0.05742C17.0145 -0.212321 15.1661 0.491822 14.3261 1.67587C13.6608 1.41696 12.9147 1.43212 12.2647 1.7387C11.334 2.17743 10.7605 2.92166 10.6065 3.89338C10.4951 4.59644 10.6185 5.40241 10.944 6.10655C11.0937 6.42938 11.2892 6.70128 11.5274 6.92228L11.5121 7.16169C10.9287 6.55071 10.1444 6.1358 9.26066 6.00906C8.23818 5.86173 7.22007 6.11847 6.39203 6.73162C5.564 7.34476 5.02763 8.24065 4.88016 9.25353C4.79605 9.82443 4.84302 10.3997 5.01452 10.9435C3.69273 11.7776 2.89528 12.4341 2.01809 13.6561C1.13762 14.8834 0.441766 16.6189 0.157743 18.2991C-0.224594 20.5588 0.0911074 22.7709 1.07208 24.6959C1.22173 24.9895 1.58332 25.1076 1.87936 24.9592C2.17539 24.8108 2.29447 24.4522 2.14481 24.1586C0.112955 20.1699 1.81381 15.996 2.99687 14.3472C3.84894 13.1599 4.60051 12.5933 6.06978 11.6942C6.33086 11.535 6.42808 11.2067 6.297 10.9316C6.07196 10.4603 5.99331 9.93926 6.06868 9.42361C6.17028 8.72488 6.5406 8.1074 7.11083 7.68492C7.68106 7.26243 8.38347 7.08585 9.08806 7.1866C10.175 7.3426 11.0424 8.12799 11.298 9.18745C11.3701 9.48536 11.6596 9.68144 11.9654 9.6381C13.5461 9.41928 15.1782 9.42144 16.8069 9.6446C18.4389 9.89051 20.0043 10.3466 21.4594 11.002C21.7413 11.1287 22.0744 11.0226 22.2285 10.7572C22.7768 9.81251 23.8343 9.30445 24.9201 9.46044C25.6247 9.56119 26.2474 9.92843 26.6734 10.4939C27.0994 11.0594 27.2775 11.756 27.1759 12.4547C27.1005 12.9703 26.8766 13.4481 26.527 13.8348C26.3228 14.0612 26.3228 14.4035 26.527 14.6299C27.6664 15.892 28.82 17.2429 29.3039 18.6555C31.1129 23.9344 27.7538 26.2884 26.6811 26.8842C26.3916 27.0456 26.2878 27.4085 26.4506 27.6956C26.5609 27.8906 26.7652 28 26.9749 28C27.0743 28 27.1748 27.9751 27.2677 27.9242C31.2811 25.6947 31.5389 21.4764 30.4411 18.272L30.44 18.2752ZM11.7917 4.07862C11.8835 3.49797 12.2068 3.08415 12.7782 2.8155C13.2348 2.59992 13.7854 2.65733 14.2147 2.96499C14.3665 3.0744 14.562 3.1069 14.7423 3.05274C14.9225 2.99857 15.0656 2.86424 15.1312 2.68875C15.5015 1.69103 17.1346 1.01181 18.6257 1.23605C20.1671 1.46787 21.2431 2.62159 21.0771 3.86304C21.0552 4.02229 21.1 4.1837 21.2005 4.30936C21.301 4.43503 21.4474 4.51627 21.6091 4.53361C22.1203 4.58777 22.5529 4.89326 22.7648 5.35041C22.9462 5.74257 22.9582 6.23438 22.7954 6.66662C22.6621 7.02086 22.4273 7.28843 22.1334 7.42059C21.9488 7.50401 21.6899 7.56901 21.4977 7.58092C21.4048 7.51701 21.3043 7.45201 21.1962 7.38701C21.4856 7.03277 21.6364 6.55396 21.6702 6.43479C21.7281 6.2333 21.6113 6.02422 21.4081 5.96681C21.2049 5.90939 20.9941 6.02531 20.9351 6.22572C20.8586 6.48896 20.6696 6.89194 20.5025 7.00894C20.3867 6.95261 20.2643 6.89736 20.1376 6.84211C20.3474 6.57021 20.4522 6.27013 20.4697 6.2203C20.5363 6.02097 20.4271 5.80756 20.2272 5.74148C20.0262 5.6754 19.811 5.78373 19.7444 5.98306C19.6908 6.14447 19.5204 6.47488 19.3522 6.54312C19.3522 6.54312 19.3511 6.54312 19.35 6.54312C18.2369 6.17372 16.7894 5.90181 14.9488 5.91589C14.8384 5.78156 14.7499 5.54649 14.7183 5.39266C14.6767 5.18792 14.4757 5.05576 14.2693 5.09584C14.0617 5.137 13.9274 5.33633 13.9689 5.54107C13.9765 5.5779 14.0126 5.74473 14.0945 5.94298C13.9765 5.94948 13.8575 5.95598 13.7362 5.96464C13.6379 5.77506 13.5581 5.50099 13.5275 5.30708C13.4948 5.10017 13.2992 4.95934 13.0906 4.99076C12.8819 5.02326 12.7388 5.21717 12.7716 5.42408C12.7847 5.50749 12.8306 5.76098 12.9344 6.03722C12.7596 6.05672 12.5826 6.0773 12.4013 6.10114C12.2505 5.97872 12.1326 5.8184 12.0353 5.60824C11.8092 5.11967 11.7185 4.54769 11.7928 4.07754L11.7917 4.07862ZM12.5258 8.37715L12.6045 7.16818C18.2227 6.43804 20.7778 8.3154 21.4376 8.91771L21.253 9.62294C19.8995 9.08021 18.4674 8.6913 16.9784 8.46706C15.4807 8.26232 13.9874 8.23307 12.5258 8.37606V8.37715Z" fill="#E0E0E0"/>
<path d="M16.7551 17.5119C16.8319 17.5444 16.9133 17.5642 16.9947 17.5723C17.3924 17.6094 17.8203 17.3645 17.8715 16.8957C17.9133 16.515 17.675 16.2005 17.3087 16.1518C17.004 16.1112 16.6028 16.2702 16.4365 16.5638C16.347 16.7216 16.3237 16.9201 16.3749 17.093C16.4318 17.2891 16.5807 17.4377 16.7551 17.5119Z" fill="#E0E0E0"/>
<path d="M12.94 16.2725C12.983 15.8558 12.7539 15.5703 12.3551 15.5402C11.9318 15.5088 11.5364 15.8349 11.5003 16.2469C11.4643 16.6554 11.7818 17.0802 12.212 17.0663C12.6179 17.0535 12.9016 16.6462 12.94 16.2725Z" fill="#E0E0E0"/>
<path d="M16.8124 19.2158C16.6391 19.3864 16.4379 19.6835 16.346 20.0526C15.8983 20.2081 13.6354 20.8684 11.4864 19.217C11.3864 19.1404 11.2422 19.159 11.1654 19.2588C11.0887 19.3586 11.1073 19.5025 11.2073 19.5791C12.4644 20.5446 13.7424 20.7895 14.7401 20.7791C15.4274 20.7721 15.9786 20.6444 16.2995 20.5493C16.3181 20.8568 16.4263 21.1911 16.681 21.5288C16.7193 21.5798 16.7751 21.61 16.8333 21.6181C16.8903 21.6263 16.9507 21.6112 17.0019 21.574C17.1031 21.4986 17.1228 21.3547 17.0473 21.2537C16.3577 20.3404 17.1031 19.5733 17.1356 19.5408C17.2252 19.4514 17.2252 19.3075 17.1368 19.2181C17.0473 19.1288 16.9031 19.1276 16.8124 19.2158Z" fill="#E0E0E0"/>
<path d="M15.2842 18.3541C15.3156 18.0477 14.9342 17.8655 14.4446 17.8145C13.9551 17.7634 13.5434 17.8632 13.5108 18.1684C13.4783 18.4737 13.8364 18.8903 14.326 18.9414C14.8156 18.9936 15.2528 18.6605 15.2842 18.3541Z" fill="#E0E0E0"/>
<path d="M20.7344 23.0581C22.2147 22.8183 23.2199 21.4263 22.9796 19.9491C22.7393 18.4718 21.3446 17.4686 19.8643 17.7084C18.3841 17.9482 17.3789 19.3402 17.6191 20.8174C17.8594 22.2947 19.2542 23.2979 20.7344 23.0581Z" fill="#E0E0E0"/>
</svg>
