<svg width="18" height="18" viewBox="0 0 18 18" fill="none" xmlns="http://www.w3.org/2000/svg">
  <path d="M8.60742 11.0498C9.02164 11.0498 9.35742 11.3856 9.35742 11.7998C9.35742 12.214 9.02164 12.5498 8.60742 12.5498H8.59961C8.1854 12.5498 7.84961 12.214 7.84961 11.7998C7.84961 11.3856 8.1854 11.0498 8.59961 11.0498H8.60742Z" fill="#212121"/>
  <path d="M8.59961 4.64941C9.01382 4.64941 9.34961 4.9852 9.34961 5.39941V8.59961C9.3495 9.01373 9.01376 9.34961 8.59961 9.34961C8.18546 9.34961 7.84971 9.01373 7.84961 8.59961V5.39941C7.84961 4.9852 8.1854 4.64941 8.59961 4.64941Z" fill="#212121"/>
  <path fill-rule="evenodd" clip-rule="evenodd" d="M8.59961 0C13.3493 0 17.1992 3.84996 17.1992 8.59961C17.1992 13.3493 13.3493 17.1992 8.59961 17.1992C3.84996 17.1992 0 13.3493 0 8.59961C6.44306e-08 3.84996 3.84996 6.44285e-08 8.59961 0ZM8.59961 1.19922C4.5127 1.19922 1.19922 4.5127 1.19922 8.59961C1.19922 12.6865 4.5127 16 8.59961 16C12.6865 16 16 12.6865 16 8.59961C16 4.5127 12.6865 1.19922 8.59961 1.19922Z" fill="#212121"/>
</svg>
