<svg width="24" height="24" viewBox="0 0 24 24" fill="none" xmlns="http://www.w3.org/2000/svg">
<path fill-rule="evenodd" clip-rule="evenodd" d="M9.00061 5C9.08052 5.00003 9.15968 5.01702 9.23303 5.0498C9.30614 5.08253 9.37218 5.12995 9.42737 5.18945L15.4264 11.6504C15.4817 11.7099 15.5247 11.7806 15.5543 11.8574C15.584 11.9344 15.5992 12.0167 15.5992 12.0996C15.5992 12.1826 15.584 12.2648 15.5543 12.3418C15.5247 12.4187 15.4817 12.4893 15.4264 12.5488L9.42737 19.0098C9.31548 19.1302 9.16224 19.1992 9.00061 19.1992C8.83885 19.1992 8.68482 19.1303 8.57288 19.0098C8.46126 18.8895 8.40003 18.7277 8.40002 18.5605C8.40002 18.3934 8.46127 18.2316 8.57288 18.1113L14.1549 12.0996L8.57288 6.08789C8.51759 6.02838 8.47454 5.95769 8.44495 5.88086C8.41533 5.80392 8.40002 5.72158 8.40002 5.63867C8.40006 5.55579 8.41532 5.47339 8.44495 5.39648C8.4746 5.31964 8.51752 5.24895 8.57288 5.18945C8.62821 5.12973 8.69483 5.08259 8.76819 5.0498C8.8416 5.017 8.92063 5 9.00061 5Z" fill="#F04C28"/>
</svg>
