<svg width="213" height="42" viewBox="0 0 213 42" fill="none" xmlns="http://www.w3.org/2000/svg">
<g clip-path="url(#clip0_16261_4663)">
<mask id="mask0_16261_4663" style="mask-type:luminance" maskUnits="userSpaceOnUse" x="0" y="0" width="42" height="42">
<path d="M42 0H0V42H42V0Z" fill="white"/>
</mask>
<g mask="url(#mask0_16261_4663)">
<path d="M35.2203 42H6.77966C3.04213 42 0 38.9579 0 35.2203V6.77966C0 3.04054 3.04213 0 6.77966 0H35.2203C38.9595 0 42 3.04054 42 6.77966V35.2203C42 38.9579 38.9579 42 35.2203 42ZM6.77966 1.75846C4.01089 1.75846 1.75846 4.01089 1.75846 6.77966V35.2203C1.75846 37.9891 4.01089 40.2415 6.77966 40.2415H35.2203C37.9891 40.2415 40.2415 37.9891 40.2415 35.2203V6.77966C40.2415 4.01089 37.9891 1.75846 35.2203 1.75846H6.77966Z" fill="#F04C28"/>
<path d="M40.2879 31.1311C39.5797 29.0465 37.8916 27.0531 36.2243 25.1907C35.9253 24.8566 35.9253 24.3515 36.2243 24.0173C36.7358 23.4466 37.0651 22.7417 37.1738 21.9807C37.3241 20.9496 37.0619 19.9217 36.4385 19.0873C35.815 18.2528 34.9038 17.7109 33.8727 17.5622C32.2821 17.332 30.7363 18.0833 29.9338 19.4757C29.7084 19.869 29.2208 20.0256 28.8084 19.837C26.679 18.8699 24.3882 18.1968 21.9999 17.834C19.6148 17.5047 17.2281 17.5015 14.9149 17.8244C14.4673 17.8867 14.0437 17.599 13.9382 17.1594C13.5641 15.5959 12.2932 14.4369 10.7042 14.2067C9.67312 14.0581 8.64522 14.3186 7.81075 14.9421C6.97628 15.5656 6.43436 16.4768 6.28569 17.5078C6.17538 18.2688 6.29048 19.0377 6.61979 19.7331C6.81163 20.1375 6.66775 20.6219 6.28729 20.8585C4.13717 22.1838 3.03733 23.0214 1.79203 24.7735L0.35968 23.7536C1.64336 21.9488 2.81033 20.9816 4.74464 19.7507C4.49366 18.9482 4.42492 18.0977 4.54801 17.2569C4.76382 15.7622 5.55033 14.4401 6.76047 13.5353C7.97221 12.6305 9.4637 12.2517 10.9584 12.4691C12.9998 12.7648 14.6767 14.1156 15.4121 15.994C17.6533 15.7446 19.9505 15.7798 22.2541 16.0979C24.5609 16.448 26.7749 17.0666 28.8547 17.9411C30.092 16.3473 32.0839 15.5288 34.1253 15.8245C35.62 16.0403 36.942 16.8268 37.8468 18.037C38.7516 19.2487 39.1305 20.7386 38.9131 22.2349C38.7916 23.0758 38.4863 23.8703 38.0195 24.5673C39.6437 26.4104 41.2103 28.3863 41.952 30.5684L40.2863 31.1343L40.2879 31.1311Z" fill="#F04C28"/>
<path d="M22.8424 27.8188C22.9479 27.8636 23.0598 27.8908 23.1717 27.902C23.7184 27.9531 24.3067 27.6158 24.377 26.97C24.4346 26.4456 24.1069 26.0124 23.6033 25.9453C23.1845 25.8893 22.633 26.1083 22.4044 26.5128C22.2813 26.7302 22.2493 27.0036 22.3196 27.2417C22.398 27.5119 22.6026 27.7165 22.8424 27.8188Z" fill="#F04C28"/>
<path d="M16.5967 27.2049C17.1546 27.1874 17.5446 26.6262 17.5974 26.1115C17.6566 25.5376 17.3416 25.1443 16.7933 25.1028C16.2114 25.0596 15.6679 25.5088 15.6183 26.0763C15.5688 26.639 16.0052 27.2241 16.5967 27.2049Z" fill="#F04C28"/>
<path d="M22.9207 30.1656C22.6825 30.4006 22.4059 30.8098 22.2797 31.3182C21.6642 31.5324 18.5533 32.442 15.5991 30.1672C15.4616 30.0617 15.2634 30.0872 15.1579 30.2247C15.0524 30.3622 15.078 30.5604 15.2154 30.6659C16.9435 31.996 18.7004 32.3333 20.072 32.3189C21.0168 32.3093 21.7745 32.1334 22.2157 32.0024C22.2413 32.426 22.39 32.8864 22.7401 33.3516C22.7928 33.4219 22.8695 33.4635 22.9495 33.4747C23.0278 33.4859 23.1109 33.4651 23.1813 33.4139C23.3203 33.31 23.3475 33.1118 23.2436 32.9727C22.2956 31.7146 23.3203 30.6579 23.3651 30.6132C23.4882 30.4901 23.4882 30.2919 23.3651 30.1688C23.242 30.0457 23.0438 30.0441 22.9191 30.1656H22.9207Z" fill="#F04C28"/>
<path d="M19.5029 29.7915C20.1759 29.8618 20.777 29.403 20.8201 28.981C20.8633 28.559 20.339 28.308 19.666 28.2377C18.9929 28.1673 18.427 28.3048 18.3823 28.7252C18.3375 29.1457 18.8299 29.7196 19.5029 29.7899V29.7915Z" fill="#F04C28"/>
<path d="M27.7133 35.5081C29.7755 35.5081 31.4461 33.8376 31.4461 31.7754C31.4461 29.7132 29.7755 28.0427 27.7133 28.0427C25.6511 28.0427 23.9806 29.7132 23.9806 31.7754C23.9806 33.8376 25.6511 35.5081 27.7133 35.5081Z" fill="#F04C28"/>
<path d="M29.0929 19.5333C29.0258 19.5333 28.9586 19.5253 28.8915 19.5077C28.4647 19.3974 28.2073 18.961 28.3192 18.5326L28.7924 16.7118C28.0187 15.8885 24.7639 13.2092 15.8533 14.1908L15.7254 16.173C15.6967 16.6142 15.3146 16.9483 14.8766 16.9196C14.4354 16.8908 14.1012 16.5119 14.13 16.0707L14.3011 13.425C14.3267 13.043 14.6192 12.7312 14.9981 12.6833C27.1266 11.1518 30.2199 15.9013 30.3462 16.1043C30.4613 16.2897 30.4949 16.5151 30.4405 16.7261L29.8666 18.937C29.7739 19.2967 29.4494 19.5365 29.0929 19.5365V19.5333Z" fill="#F04C28"/>
<path d="M28.7652 16.5455C28.7524 16.5455 28.7396 16.5455 28.7284 16.5455L28.7524 14.787C29.037 14.7934 29.491 14.6879 29.7995 14.5472C30.2295 14.3522 30.5732 13.9557 30.7683 13.4346C31.0064 12.7967 30.9889 12.071 30.7235 11.4923C30.4134 10.8177 29.7803 10.3685 29.0322 10.2869C28.7972 10.2614 28.5814 10.1431 28.4343 9.95604C28.2872 9.769 28.2233 9.53241 28.2537 9.29741C28.4966 7.46542 26.922 5.76291 24.6664 5.42081C22.4843 5.0899 20.096 6.09222 19.5525 7.56453C19.4566 7.82191 19.2472 8.02173 18.9834 8.10166C18.7196 8.18159 18.4351 8.13363 18.2113 7.97218C17.583 7.51817 16.7773 7.43345 16.1091 7.75157C15.2714 8.14962 14.7998 8.75869 14.664 9.61554C14.5553 10.3093 14.6879 11.1534 15.0189 11.8744C15.2538 12.3859 15.5704 12.6992 16.0452 12.8895L15.3897 14.5216C14.5025 14.1651 13.8391 13.5225 13.4203 12.6081C12.9439 11.5706 12.7632 10.3797 12.9263 9.34217C13.1517 7.90823 13.991 6.8084 15.353 6.16256C16.3041 5.71016 17.396 5.68778 18.3695 6.06984C19.5988 4.32257 22.3053 3.28348 24.927 3.68154C27.8252 4.11955 29.9194 6.25208 30.0297 8.71552C31.0304 9.05123 31.8713 9.78499 32.3173 10.7553C32.7745 11.7497 32.8097 12.9806 32.4132 14.0469C32.0535 15.0108 31.3837 15.7574 30.5237 16.1474C29.9897 16.3904 29.3023 16.5455 28.7636 16.5455H28.7652Z" fill="#F04C28"/>
<path d="M17.3928 13.6952C17.2793 13.6952 17.1658 13.6616 17.0667 13.5897C16.3601 13.0829 16.1363 11.8456 16.0979 11.6026C16.0499 11.2973 16.2594 11.0111 16.5647 10.9632C16.87 10.9168 17.1562 11.1247 17.2041 11.43C17.2697 11.8472 17.4855 12.5138 17.7205 12.6817C17.9715 12.8623 18.029 13.2108 17.8484 13.4618C17.7397 13.6137 17.567 13.6952 17.3944 13.6952H17.3928Z" fill="#F04C28"/>
<path d="M19.14 13.4953C19.0473 13.4953 18.953 13.4713 18.8651 13.4234C18.1121 12.9982 17.8739 11.8983 17.8499 11.7736C17.7892 11.4699 17.9874 11.1758 18.2896 11.1166C18.5917 11.0559 18.8858 11.2525 18.9466 11.5546C19.0057 11.8424 19.1944 12.3236 19.415 12.4482C19.6835 12.6001 19.7794 12.9422 19.6276 13.2108C19.5253 13.393 19.335 13.4953 19.14 13.4953Z" fill="#F04C28"/>
<path d="M27.6462 15.0125C27.448 15.0125 27.2561 14.9069 27.1538 14.7199C27.0067 14.4481 27.1059 14.1092 27.3776 13.9606C27.6318 13.8215 27.9275 13.1884 28.0442 12.784C28.129 12.4867 28.4391 12.3156 28.7364 12.4003C29.0338 12.4851 29.2048 12.7952 29.1201 13.0925C29.053 13.3291 28.6757 14.5281 27.9131 14.9437C27.8284 14.9901 27.7373 15.0125 27.6462 15.0125Z" fill="#F04C28"/>
<path d="M25.9389 14.3282C25.7183 14.3282 25.5089 14.1971 25.421 13.9797C25.3043 13.6936 25.4417 13.3675 25.7279 13.2508C25.9741 13.15 26.2235 12.6625 26.3018 12.4243C26.3993 12.1301 26.7142 11.9719 27.0084 12.0678C27.3009 12.1653 27.4608 12.4818 27.3633 12.7744C27.3233 12.8943 26.9524 13.9573 26.1499 14.2851C26.0812 14.3138 26.0092 14.3266 25.9389 14.3266V14.3282Z" fill="#F04C28"/>
</g>
</g>
<g clip-path="url(#clip1_16261_4663)">
<path d="M54.9921 25.0854C54.9921 25.0854 55.1875 24.93 55.3271 24.8679C57.0021 24.1533 60.4916 23.4387 62.3621 23.4387C64.9862 23.4076 66.745 23.4697 67.6941 23.7183C71.8537 24.5572 73.7241 26.2971 73.6124 28.8138C73.6404 31.548 72.077 33.0704 68.1129 33.5365C66.2145 33.8782 64.1208 33.9715 61.8037 33.9093C59.9612 33.9093 57.5046 33.6608 55.5225 33.1947C53.01 32.6354 51.1396 31.8898 51 29.3109C51 26.3593 52.9542 25.3339 54.9642 25.0854H54.9921ZM53.345 14.2419C54.7408 14.2419 56.1925 14.2108 57.7279 14.1797L57.6721 11.2281C57.4487 10.2028 57.4208 9.1153 58.6212 8.83566C59.7937 8.99101 60.2125 9.76777 60.1008 11.0416L60.1566 14.0865C61.5525 14.0244 63.06 13.9001 64.5954 13.8069C64.5395 12.9059 64.4558 11.6009 64.372 9.86098C64.3441 9.05316 64.735 8.55603 65.4887 8.36961C66.2425 8.40068 66.6891 8.83566 66.8008 9.64349C67.052 12.1291 67.3312 15.9507 67.1637 18.6849C67.1358 20.0831 66.5775 20.8909 65.5725 21.1705C64.372 21.5123 61.8037 21.7298 58.5096 21.7609C57.1696 21.7919 54.3779 21.9473 53.345 21.7609C51.9492 21.6366 51.1117 20.9841 51.1117 18.716C51.0558 16.2614 51 14.8322 51.0558 14.3351C51.1117 13.838 51.1117 12.8126 51.1954 11.1038C51.1675 10.0163 51.3071 9.1153 52.4796 9.1153C53.4846 9.27065 53.4008 9.76777 53.4287 10.9484C53.4008 12.1291 53.3729 13.0612 53.3729 13.838V14.2729L53.345 14.2419ZM54.9362 27.1671C54.6292 27.2914 54.35 27.4156 54.0429 27.6331C53.5404 28.006 53.2892 28.441 53.2612 28.9381C53.2612 30.3984 54.9083 30.7091 57.2254 31.1441C58.1746 31.2994 59.1516 31.3616 60.1008 31.3926C61.05 31.4237 61.7758 31.4237 62.3341 31.4548C64.5954 31.5169 66.41 31.4237 67.8337 31.113C70.0949 30.678 71.1837 30.2741 71.2116 28.8138C71.2395 27.4778 69.8995 26.6389 67.5825 26.0175C66.1308 25.6757 64.5116 25.6757 62.4179 25.7379C60.6312 25.7379 57.6162 26.3903 56.1925 27.0739C55.6621 27.2603 55.2433 27.2603 54.9362 27.1049V27.1671ZM57.7558 16.4479C56.2762 16.4789 54.8525 16.4789 53.3729 16.4789C53.3729 16.945 53.3729 17.5042 53.4008 18.1257C53.4287 18.9645 53.5125 19.3063 54.1825 19.3374C54.8525 19.3685 55.5504 19.3995 56.2483 19.3685H57.8116L57.7558 16.4479ZM60.1846 16.3857L60.2962 19.3063C60.6871 19.2753 61.0779 19.2753 61.4408 19.2442C62.39 19.2131 63.1158 19.182 63.6741 19.0888C64.5675 18.9645 64.9304 18.8092 64.8187 17.4421C64.7908 17.0071 64.7908 16.6032 64.7629 16.2304C63.2554 16.2925 61.7479 16.3547 60.2125 16.3857H60.1846ZM74.7849 13.1234C75.6783 13.2476 76.097 13.6205 75.9853 14.3351C75.9574 15.174 75.5387 15.5468 74.7012 15.3915C73.9754 15.3604 73.3612 15.3293 72.8029 15.2672V15.7332C72.8587 18.1257 72.9983 20.3627 73.1658 22.4444C73.1937 23.159 72.8308 23.6251 72.0491 23.7804C71.2954 23.8426 70.8487 23.3454 70.7091 22.2891C70.5974 19.9277 70.5695 17.8771 70.5695 16.1372C70.5416 14.3972 70.5137 11.9427 70.402 8.86673C70.5695 7.59286 70.7929 7.62393 71.407 7.53072C72.0491 7.46858 72.5237 7.81035 72.8029 8.5871C72.747 10.0474 72.6912 11.5388 72.6912 13.0301C73.2495 13.0301 73.8916 13.0612 74.7291 13.1544L74.7849 13.1234Z" fill="#F04C28"/>
<path d="M100.189 30.5234C100.887 30.5234 101.669 30.9273 101.669 31.704C101.641 32.5119 101.278 32.9468 100.608 32.9779C93.5728 33.1022 85.3374 33.1643 79.0562 32.8226C78.3024 32.9468 77.9116 32.574 77.7999 31.6419C77.8278 30.6477 78.2466 30.4302 79.0841 30.4302C85.142 30.7719 92.5957 30.6477 100.189 30.4923V30.5234ZM97.8999 26.1425C97.202 25.9561 97.0065 25.3347 97.2578 24.3715C97.8999 20.9227 98.0953 16.1068 97.872 13.093C97.7324 12.0987 97.2578 11.6327 96.0295 11.6327C91.2836 11.8191 87.6266 11.8813 83.6903 11.757C82.6016 11.788 82.0432 11.757 81.4849 11.7259C80.787 11.7259 80.4241 11.322 80.3962 10.5142C80.3683 9.24029 81.0382 9.24029 82.6016 9.20922C87.3474 9.3335 91.3953 9.27136 95.6945 9.14708C98.542 9.0228 99.6586 10.017 100.049 11.757C100.552 16.1379 100.357 21.948 99.4632 24.9618C99.2957 25.8318 98.7653 26.2357 97.8999 26.1735V26.1425Z" fill="#F04C28"/>
<path d="M112.752 10.2345C114.147 10.2034 115.236 10.2034 115.934 10.2034C117.609 10.2034 118.642 10.483 119.2 12.7822C119.34 13.6211 119.368 14.46 119.34 15.2989C119.34 16.4174 119.284 17.4738 119.116 18.4991C119.005 19.4002 118.558 20.4255 116.576 20.7051C114.454 20.7051 112.026 20.643 109.318 20.5187C108.313 20.5498 108.006 20.7051 108.006 21.8547C107.95 23.2839 107.95 25.0239 108.034 27.1056C108.062 27.6648 108.369 27.9445 108.843 27.9134C109.988 27.8823 110.881 27.727 111.551 27.5406C112.221 27.3541 113.31 27.1988 114.845 27.0745C117.637 26.7327 119.563 26.5774 121.434 26.7327C122.215 26.7638 122.606 27.2298 122.606 28.0687C122.466 28.9387 122.076 29.3426 121.461 29.2494C119.368 29.063 117.218 29.3116 114.845 29.5912C113.561 29.7465 112.584 29.933 111.83 30.0883C111.077 30.2437 110.072 30.4301 108.759 30.4922C105.968 30.6165 105.577 29.4669 105.549 27.8202C105.521 25.8317 105.521 23.5946 105.577 21.1712C105.605 19.1827 106.107 18.437 108.034 18.0331C111.858 18.1884 113.114 18.2506 115.571 18.1574C116.716 18.1263 116.939 18.002 116.967 16.6038C116.995 15.361 116.967 14.4289 116.855 13.7143C116.716 13.2483 116.548 12.8133 115.739 12.8133C113.533 12.7822 112.249 12.7822 111.802 12.7511C111.384 12.7511 109.513 12.9065 106.163 13.1551C105.465 13.1551 105.102 12.7511 105.102 11.9433C105.102 11.0423 105.326 10.7316 106.359 10.5452C109.15 10.3587 111.272 10.2655 112.696 10.2034L112.752 10.2345ZM125.565 8.9295C126.375 9.05379 126.766 9.55091 126.71 10.483C126.459 13.9318 126.57 18.1263 126.682 22.3829C126.71 25.987 126.738 29.3116 127.017 31.2379C127.129 32.2943 126.821 33.071 125.816 33.1021C125.258 32.9778 124.867 32.5429 124.672 31.7661C124.504 30.2437 124.449 28.8144 124.449 27.5095C124.421 26.2045 124.393 24.3714 124.337 22.0101C124.337 19.7419 124.337 18.002 124.309 16.7903C124.281 15.5785 124.309 13.6211 124.421 10.8869C124.393 9.86161 124.449 8.96057 125.593 8.9295H125.565Z" fill="#F04C28"/>
<path d="M152.588 10.1413C153.398 10.2656 153.761 10.7627 153.677 11.6948C153.426 15.1436 153.231 19.2449 153.231 23.5947C153.258 25.0861 153.258 26.4221 153.258 27.6338C153.258 28.8455 153.314 29.9951 153.454 31.0515C153.51 31.6729 153.593 32.3565 153.677 33.1332C153.845 33.8168 153.454 34.4382 152.421 34.4693C151.863 34.4693 151.472 34.0032 151.248 33.0711C151.193 32.605 151.109 32.0768 151.053 31.5797L149.071 31.7351C141.896 31.7661 136.564 31.7661 133.019 31.7972C132.07 31.7972 130.59 31.9526 130.59 30.5855C130.618 29.6844 131.149 29.2495 132.154 29.2805L150.886 29.1562V28.3174C150.858 26.7017 150.886 24.7443 150.913 22.414C151.025 17.7846 151.025 17.4739 151.276 11.9744C151.276 10.9491 151.416 10.0791 152.588 10.0791V10.1413ZM136.536 10.3588C137.095 10.1102 137.653 9.9238 138.184 9.79952C138.798 9.67524 139.44 9.64417 140.11 9.64417C141.115 9.64417 142.371 9.67524 144.465 10.7316C146.251 11.7569 147.954 14.5222 147.871 18.1574C147.619 22.3829 146.391 24.4336 144.018 25.5832C143.32 25.9871 141.31 26.4531 139.635 26.4221C134.889 26.4531 132.377 25.1482 131.595 21.1091C131.428 20.0527 131.4 19.0584 131.428 18.1574C131.679 15.0504 132.237 13.994 133.131 12.658C133.773 11.6637 134.778 10.887 135.811 10.3898C136.118 10.2656 136.341 10.2656 136.564 10.3277L136.536 10.3588ZM134.303 15.1436C133.94 16.2 133.745 17.2564 133.717 18.3128C133.689 19.4002 133.717 20.3012 133.884 21.0159C134.778 23.8122 137.067 24.0297 139.579 24.0297C143.934 24.0297 145.414 22.0412 145.498 17.971C145.526 14.7397 143.432 12.6269 141.952 12.2851C141.366 12.1298 140.947 12.0676 140.64 12.0366C140.333 12.0055 140.194 12.0055 140.082 12.0055C139.44 12.0366 138.798 12.1298 138.211 12.2541C137.765 12.4405 137.318 12.6269 136.955 12.8755C136.648 13.0619 136.397 13.093 136.174 12.9065C135.224 13.4969 134.582 14.2115 134.275 15.1125L134.303 15.1436Z" fill="#F04C28"/>
<path d="M175.033 9.76856C175.787 9.73749 176.541 9.73749 177.239 9.73749C178.774 9.92391 180.254 10.2968 181.678 10.8249C183.66 11.6949 185.558 13.8077 185.418 17.0079C185.418 20.0217 183.52 23.0045 180.142 23.4084C179.388 23.5327 178.691 23.5948 178.076 23.6259C178.048 24.8065 178.076 26.0183 178.132 27.3854C178.16 28.3796 178.244 29.1564 178.3 29.8399H180.393C182.375 29.8088 184.637 29.7778 187.121 29.6846C187.763 29.6846 188.405 30.2438 188.405 30.9895C188.378 31.7973 187.987 32.2012 187.289 32.2012C184.106 32.2323 182.32 32.2634 181.817 32.2634C181.315 32.2944 179.723 32.2944 176.932 32.2634C174.001 32.4498 170.678 32.543 166.993 32.6052C166.379 32.7294 166.016 32.3877 165.849 31.5798C165.877 30.5856 166.351 30.1195 166.993 30.1195C169.394 29.9953 172.353 29.9331 175.899 29.871C175.871 29.2496 175.787 28.4417 175.759 27.5096C175.703 26.0804 175.703 24.8065 175.731 23.7501C174.81 23.7191 174.028 23.688 173.414 23.6259C172.716 23.5948 171.516 23.253 169.785 22.6938C166.993 21.6374 166.323 19.7421 166.351 17.2254C166.351 12.9688 170.148 10.5142 172.326 10.0793C172.437 10.0482 172.493 10.0482 172.577 10.0793C173.582 9.86177 174.363 9.73749 175.006 9.73749L175.033 9.76856ZM171.963 12.9377C171.237 13.1863 170.567 13.6213 169.925 14.2427C169.087 15.0505 168.641 16.0137 168.641 17.1943C168.808 19.9596 170.902 21.4199 175.759 21.2645C177.49 21.2645 178.998 21.1092 180.282 20.8295C181.622 20.581 183.129 18.9343 183.157 17.0701C183.297 13.8698 181.371 12.3474 176.541 12.0367C175.648 12.0678 175.061 12.0988 174.698 12.192C174.336 12.3163 173.693 12.4406 172.716 12.6892H172.688C172.688 12.6892 172.493 12.7513 172.381 12.8134C172.214 12.8756 172.074 12.9377 171.935 12.9377H171.963Z" fill="#F04C28"/>
<path d="M211.576 22.6624C212.218 22.6624 212.86 22.942 212.86 23.7188C212.833 24.5266 212.442 24.9616 211.744 25.0237C206.021 25.148 201.722 25.0859 192.565 25.6451C191.979 25.6451 191.644 25.2723 191.56 24.5888C191.588 23.5945 192.118 23.2838 192.76 23.2838C199.405 22.8799 205.686 22.6624 211.576 22.6624ZM202.029 13.3103C203.955 13.186 206.216 13.1238 208.813 13.1549C208.701 11.4461 208.589 10.0479 208.422 8.99151C208.31 8.33904 208.561 7.87298 209.12 7.59335C209.873 7.56228 210.376 7.77977 210.515 8.30797C210.823 9.33328 210.962 11.2596 211.046 14.087C211.102 15.2988 211.102 16.7901 211.074 18.5301C210.934 20.1768 209.901 20.4253 208.952 20.4564C205.937 20.4253 203.453 20.4253 201.526 20.5186C199.6 20.6118 197.395 20.736 194.994 20.7671C193.849 20.7671 192.593 20.4253 192.649 18.2194C192.621 17.4115 192.621 16.2309 192.621 14.6152C192.621 12.9996 192.593 11.8189 192.565 10.8868C192.453 9.98576 192.425 8.92937 193.57 8.92937C194.519 9.05365 194.938 10.11 194.77 10.8247C194.798 11.6014 194.826 12.5024 194.826 13.5588C197.674 13.4967 200.103 13.3724 202.057 13.2171L202.029 13.3103ZM195.692 27.4472C196.306 27.9133 196.418 28.5036 196.027 29.1561C195.72 29.5911 195.245 30.4921 195.078 31.0824C194.966 31.766 195.301 31.9524 196.055 31.9213C197.199 31.9524 198.12 31.9524 198.846 31.8592C199.572 31.766 200.912 31.6728 202.894 31.5795C206.691 31.4553 207.696 31.5795 209.538 31.7038C210.627 31.6728 211.437 31.7038 211.995 31.7349C212.693 31.7349 213.056 32.1388 213.056 32.9466C213.056 34.438 211.325 34.1273 209.622 34.1273C208.896 34.1273 208.059 34.0962 207.11 34.003C206.16 33.9098 204.765 33.972 202.894 34.0652C201.135 34.1894 199.963 34.2205 199.405 34.2516C198.846 34.2827 197.73 34.3137 196.11 34.3759C193.71 34.3759 192.872 33.8787 192.621 31.7038C192.649 30.0882 193.347 28.8764 193.989 27.8822C194.603 27.1054 195.189 27.1676 195.748 27.4783L195.692 27.4472ZM202.085 15.6095C200.549 15.7648 198.12 15.858 194.798 15.9512V17.7222C194.854 18.2815 195.105 18.5611 195.496 18.5611C200.633 18.3126 203.564 18.1883 208.561 18.1883C208.868 18.2194 208.98 18.0019 208.98 17.4737C208.98 17.1319 208.98 16.6037 208.952 15.827C208.952 15.7027 208.952 15.5784 208.924 15.423C205.881 15.4541 203.62 15.4852 202.113 15.6095H202.085Z" fill="#F04C28"/>
</g>
<defs>
<clipPath id="clip0_16261_4663">
<rect width="42" height="42" fill="white"/>
</clipPath>
<clipPath id="clip1_16261_4663">
<rect width="162" height="27" fill="white" transform="translate(51 7.5)"/>
</clipPath>
</defs>
</svg>
