<svg width="377" height="56" viewBox="0 0 377 56" fill="none" xmlns="http://www.w3.org/2000/svg">
<rect width="377" height="56" rx="10" fill="#FEE500"/>
<path opacity="0.902" d="M135 20.7509C130.878 20.7509 127.537 23.4373 127.537 26.7517C127.589 27.807 127.92 28.8273 128.495 29.7016C129.07 30.5758 129.866 31.2706 130.797 31.7103L129.969 34.8571C129.954 34.919 129.957 34.9843 129.979 35.0442C130 35.1041 130.039 35.1559 130.089 35.1926C130.14 35.2294 130.2 35.2494 130.262 35.25C130.324 35.2506 130.385 35.2318 130.436 35.196L134.066 32.7027C134.372 32.7335 134.68 32.7516 135 32.7516C139.121 32.7516 142.463 30.0653 142.463 26.7508C142.463 23.4364 139.121 20.75 135 20.75" fill="black"/>
<path d="M158.276 22.6562C158.276 26.9219 157.104 30.5781 151.901 33.1719L150.948 31.8594C153.393 30.6484 154.846 29.2422 155.666 27.5625L151.276 27.9844L151.057 26.4844L156.198 26.1562C156.377 25.5 156.487 24.8047 156.541 24.0625H151.791V22.6562H158.276ZM161.995 21.2656V26.7969H164.088V28.2188H161.995V35.3594H160.26V21.2656H161.995ZM171.784 22.6562C171.784 26.9219 170.612 30.5781 165.409 33.1719L164.456 31.8594C166.901 30.6484 168.354 29.2422 169.175 27.5625L164.784 27.9844L164.565 26.4844L169.706 26.1562C169.885 25.5 169.995 24.8047 170.05 24.0625H165.3V22.6562H171.784ZM175.503 21.2656V26.7969H177.596V28.2188H175.503V35.3594H173.768V21.2656H175.503ZM184.37 22.0625C187.401 22.0625 189.636 23.5781 189.636 25.875C189.636 27.9922 187.815 29.4062 185.23 29.6562V32.25H190.855V33.6719H177.948V32.25H183.511V29.6562C180.94 29.4062 179.12 27.9922 179.136 25.875C179.12 23.5781 181.355 22.0625 184.37 22.0625ZM184.37 23.4688C182.308 23.4531 180.823 24.3906 180.839 25.875C180.823 27.4062 182.308 28.3125 184.37 28.3125C186.464 28.3125 187.933 27.4062 187.933 25.875C187.933 24.3906 186.464 23.4531 184.37 23.4688ZM204.363 32.3125V33.75H191.456V32.3125H197.019V30.0156H192.988V25.3906H201.113V23.6406H192.956V22.2344H202.831V26.7656H194.722V28.5938H203.16V30.0156H198.738V32.3125H204.363ZM221.348 32.3125V33.75H208.441V32.3125H214.004V30.0156H209.973V25.3906H218.098V23.6406H209.941V22.2344H219.816V26.7656H211.707V28.5938H220.145V30.0156H215.723V32.3125H221.348ZM233.184 22.6406V24.2344C233.184 26.125 233.184 28.0781 232.668 31.0469L230.903 30.8906C231.45 28.1094 231.45 26.0625 231.45 24.2344V24.0469H223.309V22.6406H233.184ZM234.825 32.0312V33.4531H221.95V32.0312H234.825ZM247.223 21.2812V31.4844H245.473V21.2812H247.223ZM247.614 33.7031V35.1094H237.88V30.4531H239.63V33.7031H247.614ZM239.52 22.2031C241.661 22.2031 243.317 23.6875 243.317 25.7344C243.317 27.8281 241.661 29.2812 239.52 29.2812C237.364 29.2812 235.708 27.8281 235.708 25.7344C235.708 23.6875 237.364 22.2031 239.52 22.2031ZM239.52 23.7188C238.317 23.7188 237.395 24.5156 237.411 25.7344C237.395 26.9844 238.317 27.7656 239.52 27.7656C240.692 27.7656 241.614 26.9844 241.614 25.7344C241.614 24.5156 240.692 23.7188 239.52 23.7188Z" fill="black" fill-opacity="0.85"/>
</svg>
