<svg width="377" height="56" viewBox="0 0 377 56" fill="none" xmlns="http://www.w3.org/2000/svg">
<rect x="0.5" y="0.5" width="376" height="55" rx="9.5" fill="white"/>
<rect x="0.5" y="0.5" width="376" height="55" rx="9.5" stroke="#F5F5F5"/>
<path fill-rule="evenodd" clip-rule="evenodd" d="M150.64 28.2046C150.64 27.5664 150.583 26.9527 150.476 26.3636H142V29.845H146.844C146.635 30.97 146.001 31.9232 145.048 32.5614V34.8196H147.956C149.658 33.2527 150.64 30.9455 150.64 28.2046Z" fill="#4285F4"/>
<path fill-rule="evenodd" clip-rule="evenodd" d="M142 37C144.43 37 146.467 36.1941 147.956 34.8195L145.048 32.5613C144.242 33.1013 143.211 33.4204 142 33.4204C139.656 33.4204 137.672 31.8372 136.964 29.71H133.957V32.0418C135.438 34.9831 138.482 37 142 37Z" fill="#34A853"/>
<path fill-rule="evenodd" clip-rule="evenodd" d="M136.964 29.7099C136.784 29.1699 136.682 28.5931 136.682 27.9999C136.682 27.4068 136.784 26.8299 136.964 26.2899V23.9581H133.957C133.348 25.1731 133 26.5477 133 27.9999C133 29.4522 133.348 30.8268 133.957 32.0418L136.964 29.7099Z" fill="#FBBC05"/>
<path fill-rule="evenodd" clip-rule="evenodd" d="M142 22.5795C143.321 22.5795 144.508 23.0336 145.44 23.9255L148.022 21.3441C146.463 19.8918 144.426 19 142 19C138.482 19 135.438 21.0168 133.957 23.9582L136.964 26.29C137.672 24.1627 139.656 22.5795 142 22.5795Z" fill="#EA4335"/>
<path d="M170.766 22.125V23.3906C170.766 24.7109 170.766 26.1562 170.391 28.1562H172.344V29.5625H166.734V35.4062H164.984V29.5625H159.469V28.1562H168.625C169.016 26.2344 169.031 24.7969 169.031 23.5312H160.984V22.125H170.766ZM184.305 21.8594V22.7969C184.305 23.7266 184.305 24.8828 184.024 26.3594H185.883V27.7344H172.977V26.3594H182.274C182.524 25.0781 182.563 24.0703 182.571 23.2344H174.571V21.8594H184.305ZM184.289 28.8594V32.6875H176.211V33.8906H184.649V35.25H174.477V31.3594H182.555V30.2188H174.461V28.8594H184.289ZM199.391 32.3125V33.75H186.485V32.3125H192.048V30.0156H188.016V25.3906H196.141V23.6406H187.985V22.2344H197.86V26.7656H189.751V28.5938H198.188V30.0156H193.766V32.3125H199.391ZM216.376 32.3125V33.75H203.47V32.3125H209.033V30.0156H205.001V25.3906H213.126V23.6406H204.97V22.2344H214.845V26.7656H206.736V28.5938H215.173V30.0156H210.751V32.3125H216.376ZM228.213 22.6406V24.2344C228.213 26.125 228.213 28.0781 227.697 31.0469L225.931 30.8906C226.478 28.1094 226.478 26.0625 226.478 24.2344V24.0469H218.338V22.6406H228.213ZM229.853 32.0312V33.4531H216.978V32.0312H229.853ZM242.252 21.2812V31.4844H240.502V21.2812H242.252ZM242.643 33.7031V35.1094H232.908V30.4531H234.658V33.7031H242.643ZM234.549 22.2031C236.689 22.2031 238.346 23.6875 238.346 25.7344C238.346 27.8281 236.689 29.2812 234.549 29.2812C232.393 29.2812 230.736 27.8281 230.736 25.7344C230.736 23.6875 232.393 22.2031 234.549 22.2031ZM234.549 23.7188C233.346 23.7188 232.424 24.5156 232.439 25.7344C232.424 26.9844 233.346 27.7656 234.549 27.7656C235.721 27.7656 236.643 26.9844 236.643 25.7344C236.643 24.5156 235.721 23.7188 234.549 23.7188Z" fill="black"/>
</svg>
